<svg width="190" height="120" viewBox="0 0 190 120" fill="none" xmlns="http://www.w3.org/2000/svg">
<path d="M0.5 24C0.5 11.0213 11.0213 0.5 24 0.5H166C178.979 0.5 189.5 11.0213 189.5 24V96.0007C189.5 108.979 178.979 119.501 166 119.501H24C11.0213 119.501 0.5 108.979 0.5 96.0007V24Z" fill="url(#paint0_radial_1_63)"/>
<path d="M0.5 24C0.5 11.0213 11.0213 0.5 24 0.5H166C178.979 0.5 189.5 11.0213 189.5 24V96.0007C189.5 108.979 178.979 119.501 166 119.501H24C11.0213 119.501 0.5 108.979 0.5 96.0007V24Z" stroke="#2D2D2D"/>
<path d="M56.6667 66.6666C56.6667 53.4674 56.6667 46.8676 60.7672 42.7671C64.8678 38.6666 71.4674 38.6666 84.6667 38.6666H98.6667C111.866 38.6666 118.466 38.6666 122.566 42.7671C126.667 46.8676 126.667 53.4674 126.667 66.6666C126.667 79.8658 126.667 86.4658 122.566 90.566C118.466 94.6666 111.866 94.6666 98.6667 94.6666H84.6667C71.4674 94.6666 64.8678 94.6666 60.7672 90.566C56.6667 86.4658 56.6667 79.8658 56.6667 66.6666Z" stroke="white" stroke-width="5"/>
<path d="M118.595 62.0831L115.524 60.4266C113.964 63.3191 111.862 65.228 109.117 66.2383C108.744 65.9308 108.34 65.6077 107.906 65.2742C110.312 63.5249 112.254 60.9484 113.699 57.5799L110.492 56.2044C109.074 59.5105 107.215 61.7795 104.827 63.1115C104.339 62.7998 103.85 62.5021 103.359 62.2175C105.706 60.1773 107.547 57.3239 108.665 53.9359L105.351 52.8428C104.25 56.179 102.341 58.85 99.9255 60.4592C99.4507 60.2476 98.9759 60.0487 98.5012 59.8631C100.353 57.7868 101.783 55.0734 102.649 51.9263L99.2852 51C98.383 54.2769 96.7931 56.9461 94.7435 58.6679C94.3116 58.5622 93.8806 58.4667 93.4512 58.3838C93.6822 58.053 93.8921 57.7264 94.0762 57.4213C95.0989 55.7263 95.8859 53.8126 96.2355 52.171L92.8227 51.4442C92.2771 54.0058 90.4238 57.0608 89.1989 57.9411C89.108 57.94 89.0169 57.9381 88.9262 57.9381C83.6424 57.9381 77.96 59.8464 72.4934 63.4565C68.4094 66.1537 65.8786 68.8366 65.773 68.9494L64.6558 70.1419L65.7727 71.3346C65.8785 71.4474 68.4091 74.1303 72.4932 76.8274C77.9598 80.4377 83.6421 82.3459 88.926 82.3459C94.2097 82.3459 99.8921 80.4377 105.359 76.8274C109.443 74.1304 111.973 71.4475 112.079 71.3346L113.196 70.1419L112.079 68.9492C112.067 68.9358 112.019 68.8855 111.94 68.8043C114.714 67.3912 116.946 65.1406 118.595 62.0831ZM76.8576 75.386C73.5649 73.558 70.9889 71.4332 69.5614 70.1401C70.9888 68.8436 73.5653 66.7145 76.8639 64.8854C76.0279 66.4782 75.5591 68.261 75.5591 70.142C75.5591 72.018 76.0256 73.7964 76.8576 75.386ZM88.926 78.8565C83.4794 78.8565 79.0484 74.9471 79.0484 70.1419C79.0484 65.3366 83.4794 61.4272 88.926 61.4272C94.3725 61.4272 98.8035 65.3366 98.8035 70.1419C98.8035 74.9471 94.3724 78.8565 88.926 78.8565ZM100.988 75.3984C101.824 73.8057 102.293 72.0229 102.293 70.1419C102.293 68.2658 101.826 66.4874 100.994 64.8977C104.287 66.7256 106.863 68.8502 108.291 70.1437C106.863 71.4402 104.286 73.5694 100.988 75.3984Z" fill="white"/>
<path d="M88.9264 74.6033C91.3906 74.6033 93.3881 72.6058 93.3881 70.1416C93.3881 67.6775 91.3906 65.6799 88.9264 65.6799C86.4623 65.6799 84.4647 67.6775 84.4647 70.1416C84.4647 72.6058 86.4623 74.6033 88.9264 74.6033Z" fill="white"/>
<path d="M105.667 38.6666C105.667 32.067 105.667 28.7671 103.616 26.7169C101.566 24.6666 98.2663 24.6666 91.6667 24.6666C85.0671 24.6666 81.7672 24.6666 79.717 26.7169C77.6667 28.7671 77.6667 32.067 77.6667 38.6666" stroke="white" stroke-width="5"/>
<defs>
<radialGradient id="paint0_radial_1_63" cx="0" cy="0" r="1" gradientUnits="userSpaceOnUse" gradientTransform="translate(95 60.0003) rotate(90) scale(60.0003 95)">
<stop stop-color="#CC631C"/>
<stop offset="1" stop-color="#FF7D26"/>
</radialGradient>
</defs>
</svg>
