<svg width="30" height="30" viewBox="0 0 30 30" fill="none" xmlns="http://www.w3.org/2000/svg">
<path d="M15 30C23.2843 30 30 23.2843 30 15C30 6.71573 23.2843 0 15 0C6.71573 0 0 6.71573 0 15C0 23.2843 6.71573 30 15 30Z" fill="#1EA1F1"/>
<path d="M13.5 21C13.3026 21.0012 13.1069 20.9633 12.9241 20.8887C12.7414 20.814 12.5752 20.7041 12.435 20.565L7.935 16.065C7.79514 15.9252 7.6842 15.7591 7.60851 15.5764C7.53282 15.3937 7.49386 15.1978 7.49386 15C7.49386 14.6006 7.65254 14.2175 7.935 13.935C8.21745 13.6526 8.60054 13.4939 9 13.4939C9.39945 13.4939 9.78254 13.6526 10.065 13.935L13.5 17.385L19.935 10.935C20.2175 10.6526 20.6005 10.4939 21 10.4939C21.3994 10.4939 21.7825 10.6526 22.065 10.935C22.3475 11.2175 22.5061 11.6006 22.5061 12C22.5061 12.3995 22.3475 12.7826 22.065 13.065L14.565 20.565C14.4248 20.7041 14.2586 20.814 14.0759 20.8887C13.8931 20.9633 13.6974 21.0012 13.5 21Z" fill="white"/>
</svg>
