<svg width="41" height="41" viewBox="0 0 41 41" fill="none" xmlns="http://www.w3.org/2000/svg">
<path d="M6.83305 32.4583V10.5917C6.83305 8.67816 6.83305 7.72139 7.20545 6.99053C7.533 6.34764 8.05568 5.82496 8.69858 5.4974C9.42944 5.125 10.3862 5.125 12.2997 5.125H28.6997C30.6132 5.125 31.5701 5.125 32.3009 5.4974C32.9437 5.82496 33.4665 6.34764 33.794 6.99053C34.1664 7.72139 34.1664 8.67816 34.1664 10.5917V29.0417H10.2497C8.36274 29.0417 6.83305 30.5713 6.83305 32.4583ZM6.83305 32.4583C6.83305 34.3454 8.36274 35.875 10.2497 35.875H34.1664M15.3747 11.9583H25.6247M15.3747 18.7917H25.6247M32.458 29.0417V35.875" stroke="white" stroke-width="3.41667" stroke-linecap="round" stroke-linejoin="round"/>
</svg>
