<svg viewBox="0 0 190 120" fill="none" xmlns="http://www.w3.org/2000/svg">
<path d="M0.5 24.2506C0.5 11.2719 11.0213 0.750549 24 0.750549H166C178.979 0.750549 189.5 11.2719 189.5 24.2505V95.7502C189.5 108.729 178.979 119.25 166 119.25H24C11.0213 119.25 0.5 108.729 0.5 95.7502V24.2506Z" fill="#00B562"/>
<path d="M0.5 24.2506C0.5 11.2719 11.0213 0.750549 24 0.750549H166C178.979 0.750549 189.5 11.2719 189.5 24.2505V95.7502C189.5 108.729 178.979 119.25 166 119.25H24C11.0213 119.25 0.5 108.729 0.5 95.7502V24.2506Z" stroke="#2D2D2D"/>
<path d="M43.6875 82.7504H39.375C36.1994 82.7504 33.625 80.1762 33.625 77.0004V36.7504C33.625 33.5748 36.1994 31.0004 39.375 31.0004H79.625C82.8007 31.0004 85.375 33.5748 85.375 36.7504V77.0004C85.375 80.1762 82.8007 82.7504 79.625 82.7504H75.3125M59.5 79.8754C64.2636 79.8754 68.125 76.014 68.125 71.2504C68.125 66.4868 64.2636 62.6254 59.5 62.6254C54.7364 62.6254 50.875 66.4868 50.875 71.2504C50.875 76.014 54.7364 79.8754 59.5 79.8754ZM59.5 79.8754L59.5615 79.8749L50.3824 89.0542L42.2507 80.9222L50.9315 72.2414M59.5 79.8754L68.6793 89.0542L76.811 80.9222L68.1302 72.2414M50.875 42.5004H68.125M45.125 52.5629H73.875" stroke="white" stroke-width="4" stroke-linecap="round" stroke-linejoin="round"/>
<path d="M121.875 78.9377H139.125M116.125 68.8752H144.875M110.375 31.5002H150.625C153.801 31.5002 156.375 34.3606 156.375 37.8891V82.6114C156.375 86.1398 153.801 89.0002 150.625 89.0002H110.375C107.199 89.0002 104.625 86.1398 104.625 82.6114V37.8891C104.625 34.3606 107.199 31.5002 110.375 31.5002ZM130.493 43.6095C128.481 41.3695 125.126 40.7669 122.606 42.8181C120.085 44.8693 119.73 48.2988 121.71 50.7247C123.689 53.1507 130.493 58.8127 130.493 58.8127C130.493 58.8127 137.297 53.1507 139.277 50.7247C141.256 48.2988 140.945 44.8477 138.381 42.8181C135.816 40.7885 132.505 41.3695 130.493 43.6095Z" stroke="white" stroke-width="4" stroke-linecap="round" stroke-linejoin="round"/>
</svg>
