<svg viewBox="0 0 190 120" fill="none" xmlns="http://www.w3.org/2000/svg">
<path d="M0.5 24.5007C0.5 11.522 11.0213 1.00073 24 1.00073H166C178.979 1.00073 189.5 11.522 189.5 24.5007V95.5007C189.5 108.479 178.979 119.001 166 119.001H24C11.0213 119.001 0.5 108.479 0.5 95.5007V24.5007Z" fill="url(#paint0_radial_1_93)"/>
<path d="M0.5 24.5007C0.5 11.522 11.0213 1.00073 24 1.00073H166C178.979 1.00073 189.5 11.522 189.5 24.5007V95.5007C189.5 108.479 178.979 119.001 166 119.001H24C11.0213 119.001 0.5 108.479 0.5 95.5007V24.5007Z" stroke="#2D2D2D"/>
<path d="M71.9686 67.6496L67.5986 63.2796C65.8161 61.4971 65.8161 58.5646 67.5986 56.7821L71.9686 52.4121C72.7161 51.6646 73.3198 50.1983 73.3198 49.1633V42.982C73.3198 40.452 75.3898 38.3821 77.9198 38.3821H84.1011C85.1361 38.3821 86.6023 37.7784 87.3498 37.0309L91.7198 32.6608C93.5023 30.8783 96.4348 30.8783 98.2173 32.6608L102.587 37.0309C103.335 37.7784 104.801 38.3821 105.836 38.3821H112.017C114.547 38.3821 116.617 40.452 116.617 42.982V49.1633C116.617 50.1983 117.221 51.6646 117.969 52.4121L122.339 56.7821C124.121 58.5646 124.121 61.4971 122.339 63.2796L117.969 67.6496C117.221 68.3971 116.617 69.8634 116.617 70.8984V77.0793C116.617 79.6093 114.547 81.6796 112.017 81.6796H105.836C104.801 81.6796 103.335 82.2834 102.587 83.0309L98.2173 87.4009C96.4348 89.1834 93.5023 89.1834 91.7198 87.4009L87.3498 83.0309C86.6023 82.2834 85.1361 81.6796 84.1011 81.6796H77.9198C75.3898 81.6796 73.3198 79.6093 73.3198 77.0793V70.8984C73.3198 69.8346 72.7161 68.3684 71.9686 67.6496Z" stroke="white" stroke-width="4.3125" stroke-linecap="round" stroke-linejoin="round"/>
<path d="M86.375 68.6257L103.625 51.3757" stroke="white" stroke-width="4.3125" stroke-linecap="round" stroke-linejoin="round"/>
<path d="M102.172 67.1882H102.198" stroke="white" stroke-width="5.75" stroke-linecap="round" stroke-linejoin="round"/>
<path d="M87.7969 52.8132H87.8227" stroke="white" stroke-width="5.75" stroke-linecap="round" stroke-linejoin="round"/>
<defs>
<radialGradient id="paint0_radial_1_93" cx="0" cy="0" r="1" gradientUnits="userSpaceOnUse" gradientTransform="translate(95 60.0007) rotate(90) scale(59.5 95)">
<stop stop-color="#2C6AF3"/>
<stop offset="1" stop-color="#3E6DD5"/>
</radialGradient>
</defs>
</svg>
