<svg width="90" height="48" viewBox="0 0 90 48" fill="none" xmlns="http://www.w3.org/2000/svg">
<path d="M12.8422 31.1921C34.1019 49.9779 66.1448 49.979 87.4055 31.1945C66.1448 12.4077 34.1027 12.4046 12.8422 31.1921Z" fill="white"/>
<path d="M50.1227 45.2822C57.9041 45.2822 64.2122 38.9741 64.2122 31.1927C64.2122 23.4113 57.9041 17.1032 50.1227 17.1032C42.3413 17.1032 36.0332 23.4113 36.0332 31.1927C36.0332 38.9741 42.3413 45.2822 50.1227 45.2822Z" fill="#02E7FF"/>
<path d="M50.1227 37.5225C53.6186 37.5225 56.4525 34.6885 56.4525 31.1927C56.4525 27.6968 53.6186 24.8629 50.1227 24.8629C46.6269 24.8629 43.7929 27.6968 43.7929 31.1927C43.7929 34.6885 46.6269 37.5225 50.1227 37.5225Z" fill="#0E4675"/>
<path d="M43.7869 31.1925C43.7869 34.6868 46.6299 37.5294 50.1238 37.5294C53.6181 37.5294 56.4611 34.6865 56.4611 31.1925C56.4611 27.698 53.6181 24.8552 50.1238 24.8552C46.6295 24.8552 43.7869 27.6982 43.7869 31.1925Z" fill="url(#paint0_linear_3_204)"/>
<path d="M88.8025 29.6135C83.0272 24.5104 76.4828 20.7463 69.5732 18.3156C68.7778 16.5934 68.6091 14.6653 69.106 12.8103C69.6686 10.7107 71.0153 8.95589 72.8978 7.86902C73.9069 7.28651 74.2528 5.99599 73.6701 4.98689C73.0877 3.97816 71.7979 3.63208 70.7879 4.21459C67.9291 5.86485 65.8845 8.52967 65.0301 11.7183C64.574 13.4209 64.49 15.1633 64.7587 16.8533C61.4359 15.9979 58.0533 15.4393 54.6515 15.1764C51.9834 11.9826 52.1468 7.20837 55.1447 4.21003C55.9686 3.38618 55.9686 2.05013 55.1447 1.22591C54.3205 0.402236 52.9846 0.402236 52.1606 1.22591C48.4419 4.94518 47.5963 10.4632 49.6184 15.0036C46.1967 15.0329 42.7774 15.3598 39.4026 15.9859C37.848 14.8917 36.7345 13.3043 36.2365 11.4457C35.674 9.34606 35.9626 7.15281 37.0496 5.27032C37.6323 4.26122 37.2866 2.97088 36.2773 2.38819C35.2678 1.8055 33.9775 2.1514 33.3952 3.1605C31.7447 6.01931 31.3063 9.34933 32.1604 12.5376C32.6161 14.2387 33.4136 15.7883 34.4897 17.1167C31.2056 18.0241 27.9848 19.2212 24.8694 20.7117C23.0944 20.0553 21.6164 18.8128 20.6583 17.1533C19.5714 15.2708 19.2826 13.0777 19.8452 10.9779C20.1469 9.85243 19.4789 8.69561 18.3532 8.39397C17.2272 8.0916 16.0709 8.76027 15.7691 9.88594C14.9148 13.0743 15.3533 16.4046 17.0039 19.2631C17.8829 20.786 19.0521 22.0747 20.433 23.0789C17.5254 24.7946 14.7351 26.7842 12.0983 29.0464C7.9588 28.6692 4.70491 25.1803 4.70491 20.9443C4.70491 19.7793 3.76011 18.8343 2.59491 18.8343C1.42971 18.8343 0.484909 19.7791 0.484909 20.9443C0.484909 27.4829 5.59015 32.8482 12.0232 33.2719C22.8563 42.5968 36.2968 47.3002 49.7648 47.3827C49.8847 47.3854 50.0034 47.3918 50.1236 47.3918C50.2433 47.3918 50.3612 47.3854 50.4799 47.3827C64.1865 47.3 77.8724 42.4319 88.8022 32.7754C89.2554 32.3748 89.5151 31.799 89.5151 31.1941C89.5153 30.5896 89.2557 30.0136 88.8025 29.6135ZM62.1033 31.1925C62.1033 37.7254 56.8456 43.0505 50.3398 43.1665C50.1959 43.1671 50.0519 43.1671 49.908 43.1665C43.402 43.0505 38.1441 37.7256 38.1441 31.1925C38.1441 24.6281 43.4523 19.2824 50.0012 19.2159C50.0836 19.2157 50.1659 19.2157 50.2479 19.2159C56.7963 19.2831 62.1033 24.6286 62.1033 31.1925ZM25.8076 24.9523C25.934 24.9038 26.0555 24.8443 26.1701 24.7727C29.9307 22.9226 33.8606 21.5339 37.8762 20.6077C35.4172 23.4492 33.9243 27.1488 33.9243 31.1925C33.9243 35.2351 35.4165 38.9336 37.8742 41.7749C30.0947 39.9806 22.6346 36.4535 16.1119 31.1919C19.1598 28.733 22.4131 26.6543 25.8076 24.9523ZM62.3731 41.7755C64.8312 38.9341 66.3233 35.2354 66.3233 31.1927C66.3233 27.1495 64.831 23.4507 62.3727 20.6095C64.0312 20.9922 65.6743 21.4556 67.2978 21.9955L67.3042 21.9979C73.2939 23.9918 79.005 27.0556 84.1359 31.1947C77.6126 36.4549 70.1526 39.9815 62.3731 41.7755Z" fill="url(#paint1_linear_3_204)"/>
<defs>
<linearGradient id="paint0_linear_3_204" x1="50.124" y1="24.8552" x2="50.124" y2="37.5294" gradientUnits="userSpaceOnUse">
<stop stop-color="#8E8EED"/>
<stop offset="1" stop-color="#045675"/>
</linearGradient>
<linearGradient id="paint1_linear_3_204" x1="45" y1="0.608154" x2="45" y2="47.3918" gradientUnits="userSpaceOnUse">
<stop stop-color="#8E8EED"/>
<stop offset="1" stop-color="#045675"/>
</linearGradient>
</defs>
</svg>
