<svg viewBox="0 0 190 120" fill="none" xmlns="http://www.w3.org/2000/svg">
<path d="M0.5 24.0007C0.5 11.022 11.0213 0.500732 24 0.500732H166C178.979 0.500732 189.5 11.022 189.5 24.0007V96.0007C189.5 108.979 178.979 119.501 166 119.501H24C11.0213 119.501 0.5 108.979 0.5 96.0007V24.0007Z" fill="url(#paint0_radial_1_103)" fill-opacity="0.75"/>
<path d="M0.5 24.0007C0.5 11.022 11.0213 0.500732 24 0.500732H166C178.979 0.500732 189.5 11.022 189.5 24.0007V96.0007C189.5 108.979 178.979 119.501 166 119.501H24C11.0213 119.501 0.5 108.979 0.5 96.0007V24.0007Z" stroke="#2D2D2D"/>
<path fill-rule="evenodd" clip-rule="evenodd" d="M129.087 25.0007H60.913C60.241 25.0007 59.6956 25.5461 59.6956 26.2181C59.6956 26.8901 60.241 27.4355 60.913 27.4355H63.556C63.4209 27.8166 63.3478 28.2256 63.3478 28.6529V41.0411C63.3478 41.7131 63.8932 42.2585 64.5652 42.2585C65.2372 42.2585 65.7826 41.7131 65.7826 41.0411V32.9138H119.348C120.02 32.9138 120.565 32.3684 120.565 31.6964C120.565 31.0244 120.02 30.479 119.348 30.479H65.7826V28.6529C65.7826 27.9809 66.328 27.4355 67 27.4355H123C123.672 27.4355 124.217 27.9809 124.217 28.6529V65.7833C124.217 66.4553 123.672 67.0007 123 67.0007H95V54.5225C95 47.1268 89.0043 41.1312 81.6087 41.1312C80.7991 41.1312 79.9835 41.1312 79.1739 41.1312C71.7783 41.1312 65.7826 47.1268 65.7826 54.5225V75.8779C64.4386 76.2785 63.2017 77.0089 62.1913 78.0181C60.5929 79.6166 59.6956 81.7835 59.6956 84.0442C59.6956 88.6691 59.6956 93.7833 59.6956 93.7833C59.6956 94.4553 60.241 95.0007 60.913 95.0007H99.8696C100.542 95.0007 101.087 94.4553 101.087 93.7833V84.0442C101.087 81.7835 100.19 79.6166 98.5913 78.0181C97.5809 77.0089 96.344 76.2785 95 75.8779V69.4355H123C125.017 69.4355 126.652 67.8006 126.652 65.7833V28.6529C126.652 28.2256 126.579 27.8166 126.444 27.4355H129.087C129.759 27.4355 130.304 26.8901 130.304 26.2181C130.304 25.5461 129.759 25.0007 129.087 25.0007ZM92.5652 77.9573H87.5946C87.0139 81.4098 84.0082 84.0442 80.3913 84.0442C76.7744 84.0442 73.7687 81.4098 73.188 77.9573H68.2174C66.6031 77.9573 65.0546 78.5988 63.9127 79.7395C62.772 80.8814 62.1304 82.4299 62.1304 84.0442V92.5659H67V87.6964C67 87.0244 67.5454 86.479 68.2174 86.479C68.8894 86.479 69.4348 87.0244 69.4348 87.6964V92.5659H91.3478V87.6964C91.3478 87.0244 91.8932 86.479 92.5652 86.479C93.2372 86.479 93.7826 87.0244 93.7826 87.6964V92.5659H98.6522V84.0442C98.6522 82.4299 98.0106 80.8814 96.8699 79.7395C95.728 78.5988 94.1795 77.9573 92.5652 77.9573ZM85.1075 77.9573H75.6751C76.2169 80.056 78.1245 81.6094 80.3913 81.6094C82.6581 81.6094 84.5657 80.056 85.1075 77.9573ZM92.5652 75.5225H68.2174V54.5225C68.2174 48.4708 73.1223 43.5659 79.1739 43.5659C79.9835 43.5659 80.7991 43.5659 81.6087 43.5659C87.6603 43.5659 92.5652 48.4708 92.5652 54.5225V75.5225ZM90.1304 54.8268C90.1304 54.1548 89.585 53.6094 88.913 53.6094H81.1436L79.0449 49.4131C78.8391 49.0004 78.4179 48.7399 77.9565 48.7399C77.4951 48.7399 77.0739 49.0004 76.8682 49.4131L74.7694 53.6094H71.8696C71.1976 53.6094 70.6522 54.1548 70.6522 54.8268V67.0007C70.6522 70.3619 73.3779 73.0877 76.7391 73.0877C79.029 73.0877 81.7536 73.0877 84.0435 73.0877C87.4047 73.0877 90.1304 70.3619 90.1304 67.0007C90.1304 61.9632 90.1304 54.8268 90.1304 54.8268ZM87.6956 56.0442V67.0007C87.6956 69.0179 86.0607 70.6529 84.0435 70.6529H76.7391C74.7219 70.6529 73.087 69.0179 73.087 67.0007V56.0442H75.5217C75.9831 56.0442 76.4043 55.7837 76.6101 55.371L77.9565 52.6793L79.303 55.371C79.5087 55.7837 79.9299 56.0442 80.3913 56.0442H87.6956ZM105.348 63.3486H119.348C120.02 63.3486 120.565 62.8032 120.565 62.1312C120.565 61.4592 120.02 60.9138 119.348 60.9138H105.348C104.676 60.9138 104.13 61.4592 104.13 62.1312C104.13 62.8032 104.676 63.3486 105.348 63.3486ZM101.087 57.2616H119.348C120.02 57.2616 120.565 56.7162 120.565 56.0442C120.565 55.3722 120.02 54.8268 119.348 54.8268H101.087C100.415 54.8268 99.8696 55.3722 99.8696 56.0442C99.8696 56.7162 100.415 57.2616 101.087 57.2616ZM101.087 51.1746H119.348C120.02 51.1746 120.565 50.6293 120.565 49.9573C120.565 49.2853 120.02 48.7399 119.348 48.7399H101.087C100.415 48.7399 99.8696 49.2853 99.8696 49.9573C99.8696 50.6293 100.415 51.1746 101.087 51.1746ZM101.087 45.0877H119.348C120.02 45.0877 120.565 44.5423 120.565 43.8703C120.565 43.1983 120.02 42.6529 119.348 42.6529H101.087C100.415 42.6529 99.8696 43.1983 99.8696 43.8703C99.8696 44.5423 100.415 45.0877 101.087 45.0877ZM92.5652 39.0007H119.348C120.02 39.0007 120.565 38.4553 120.565 37.7833C120.565 37.1113 120.02 36.5659 119.348 36.5659H92.5652C91.8932 36.5659 91.3478 37.1113 91.3478 37.7833C91.3478 38.4553 91.8932 39.0007 92.5652 39.0007Z" fill="white" stroke="white" stroke-width="0.2"/>
<defs>
<radialGradient id="paint0_radial_1_103" cx="0" cy="0" r="1" gradientUnits="userSpaceOnUse" gradientTransform="translate(95 60.0007) rotate(90) scale(60 95)">
<stop stop-color="#C400FF"/>
<stop offset="1" stop-color="#D23EFF"/>
</radialGradient>
</defs>
</svg>
