<svg width="28" height="26" viewBox="0 0 28 26" fill="none" xmlns="http://www.w3.org/2000/svg">
<path d="M3.38907 13.3936C2.45067 13.3936 1.51226 13.7826 0.84438 14.5435C0.244142 15.2197 -0.0517519 16.0906 0.00742699 16.9951C0.0666059 17.8997 0.472411 18.7197 1.14874 19.3199L7.22726 24.6545C7.8444 25.1957 8.6391 25.5 9.45915 25.5C9.55215 25.5 9.64515 25.5 9.73813 25.4916C10.6512 25.4154 11.505 24.9674 12.08 24.2572L26.9676 6.03008C28.1512 4.58442 27.9315 2.44553 26.4858 1.26196C25.784 0.695524 24.9048 0.424988 24.0087 0.517987C23.1126 0.610987 22.3009 1.04215 21.7261 1.74383L9.05336 17.2487L5.61251 14.2306C4.97846 13.6726 4.17531 13.3936 3.38907 13.3936Z" fill="url(#paint0_linear_5_319)"/>
<path d="M9.45922 24.8912C8.78289 24.8912 8.13192 24.6461 7.62467 24.1979L1.54615 18.8634C0.396395 17.8489 0.278037 16.0904 1.29253 14.9407C2.30703 13.7909 4.06549 13.6725 5.21525 14.6871L9.12952 18.1195L22.1911 2.12423C23.1633 0.932202 24.9134 0.763113 26.1054 1.72689C27.2974 2.69911 27.4665 4.44912 26.5028 5.64114L11.6065 23.8683C11.1331 24.4517 10.4314 24.8152 9.68749 24.8828C9.6114 24.8828 9.53531 24.8912 9.45922 24.8912Z" fill="url(#paint1_linear_5_319)"/>
<defs>
<linearGradient id="paint0_linear_5_319" x1="19.5229" y1="-25.4036" x2="10.6466" y2="30.6444" gradientUnits="userSpaceOnUse">
<stop stop-color="#00CC00"/>
<stop offset="0.1878" stop-color="#06C102"/>
<stop offset="0.5185" stop-color="#17A306"/>
<stop offset="0.9507" stop-color="#33740C"/>
<stop offset="1" stop-color="#366E0D"/>
</linearGradient>
<linearGradient id="paint1_linear_5_319" x1="18.6724" y1="-3.81497" x2="7.10928" y2="30.2071" gradientUnits="userSpaceOnUse">
<stop offset="0.2544" stop-color="#90D856"/>
<stop offset="0.736" stop-color="#00CC00"/>
<stop offset="0.7716" stop-color="#0BCD07"/>
<stop offset="0.8342" stop-color="#29CF18"/>
<stop offset="0.9166" stop-color="#59D335"/>
<stop offset="1" stop-color="#90D856"/>
</linearGradient>
</defs>
</svg>
