<svg width="69" height="70" viewBox="0 0 69 70" fill="none" xmlns="http://www.w3.org/2000/svg">
<path d="M25.875 53.9377H43.125M20.125 43.8752H48.875M14.375 6.50018H54.625C57.8007 6.50018 60.375 9.36058 60.375 12.8891V57.6114C60.375 61.1398 57.8007 64.0002 54.625 64.0002H14.375C11.1994 64.0002 8.625 61.1398 8.625 57.6114V12.8891C8.625 9.36058 11.1994 6.50018 14.375 6.50018ZM34.4931 18.6095C32.4812 16.3695 29.1263 15.7669 26.6057 17.8181C24.085 19.8693 23.7301 23.2988 25.7096 25.7247C27.6891 28.1507 34.4931 33.8127 34.4931 33.8127C34.4931 33.8127 41.2971 28.1507 43.2765 25.7247C45.2562 23.2988 44.9446 19.8477 42.3807 17.8181C39.8164 15.7885 36.505 16.3695 34.4931 18.6095Z" stroke="white" stroke-width="4" stroke-linecap="round" stroke-linejoin="round"/>
</svg>
