<svg width="72" height="72" viewBox="0 0 72 72" fill="none" xmlns="http://www.w3.org/2000/svg">
<g clip-path="url(#clip0_3_142)">
<path d="M46.5141 15.9188C47.1831 16.9359 46.9004 18.3026 45.8828 18.9713C45.3773 19.3035 44.9017 19.6954 44.4691 20.1364C44.0374 20.5765 43.4663 20.7972 42.8947 20.7972C42.3376 20.7972 41.7801 20.5875 41.3509 20.1667C40.4815 19.3143 40.468 17.9188 41.3205 17.0498C41.9728 16.385 42.6926 15.7921 43.4602 15.2877C44.4781 14.6191 45.8452 14.9017 46.5141 15.9188ZM65.6849 42.0053C65.4636 42.231 43.8147 64.2965 43.8147 64.2965C41.7297 66.4215 38.9544 67.5919 36 67.5919C33.0457 67.5919 30.2703 66.4215 28.1854 64.2965L6.31514 42.0053C-2.10505 33.4232 -2.10505 19.4588 6.31514 10.8767C10.4077 6.70544 15.852 4.4082 21.6456 4.4082C26.9896 4.4082 32.0371 6.36308 36 9.94015C39.9631 6.36308 45.0103 4.4082 50.3543 4.4082C56.1478 4.4082 61.5923 6.70544 65.6847 10.8766C74.105 19.4588 74.105 33.4232 65.6849 42.0053ZM62.5366 13.9633C59.2801 10.6443 54.9538 8.81637 50.3545 8.81637C45.7551 8.81637 41.4287 10.6441 38.1723 13.9632C38.0075 14.1313 37.8595 14.3354 37.6525 14.5182C36.5451 15.4959 35.2468 15.4468 34.3477 14.5182C34.1555 14.3195 33.9927 14.1313 33.8278 13.9632C30.5713 10.6443 26.245 8.81637 21.6456 8.81637C17.0462 8.81637 12.7199 10.6441 9.46345 13.9632C2.71308 20.8435 2.71308 32.0384 9.46345 38.9187C9.66431 39.1234 31.3337 61.2099 31.3337 61.2099C32.5825 62.4827 34.2397 63.1837 36 63.1837C37.7603 63.1837 39.4175 62.4827 40.6663 61.2099L62.5366 38.9188C69.2868 32.0386 69.2868 20.8436 62.5366 13.9633ZM59.3881 17.0499C58.0693 15.7057 56.5265 14.6923 54.8024 14.0378C53.6642 13.606 52.3907 14.1779 51.9584 15.3159C51.5261 16.4538 52.0985 17.7267 53.2369 18.1589C54.3603 18.5853 55.3707 19.2508 56.2398 20.1365C59.6504 23.6128 59.6504 29.2692 56.2398 32.7455L48.5038 40.6304C47.6511 41.4995 47.6646 42.895 48.534 43.7472C48.9632 44.1679 49.5206 44.3778 50.0778 44.3778C50.6492 44.3778 51.2204 44.1571 51.6521 43.717L59.3881 35.8321C64.4685 30.6538 64.4685 22.2282 59.3881 17.0499Z" fill="url(#paint0_linear_3_142)"/>
</g>
<defs>
<linearGradient id="paint0_linear_3_142" x1="36" y1="4.4082" x2="36" y2="67.5919" gradientUnits="userSpaceOnUse">
<stop stop-color="#E936A5"/>
<stop offset="1" stop-color="#FF9597"/>
</linearGradient>
<clipPath id="clip0_3_142">
<rect width="72" height="72" fill="white"/>
</clipPath>
</defs>
</svg>
