<svg width="72" height="72" viewBox="0 0 72 72" fill="none" xmlns="http://www.w3.org/2000/svg">
<path fill-rule="evenodd" clip-rule="evenodd" d="M4.72363 27.2588L45.2178 16.699V55.4151L28.7423 50.8885C29.016 54.9542 26.0261 58.5085 21.9737 58.935C17.8465 58.4886 14.8359 54.8209 15.2018 50.6859V47.8719L4.72363 44.8552V27.2588Z" stroke="url(#paint0_linear_3_134)" stroke-width="4.90244" stroke-linecap="round" stroke-linejoin="round"/>
<path d="M66.5488 36.8424C67.9025 36.8424 69 35.7449 69 34.3912C69 33.0374 67.9025 31.94 66.5488 31.94V36.8424ZM60.4567 31.94C59.103 31.94 58.0055 33.0374 58.0055 34.3912C58.0055 35.7449 59.103 36.8424 60.4567 36.8424V31.94ZM57.6665 53.5365C58.6176 54.5 60.1694 54.5098 61.1329 53.5587C62.0964 52.6077 62.1062 51.0559 61.1551 50.0924L57.6665 53.5365ZM56.854 45.7357C55.903 44.7723 54.3512 44.7624 53.3877 45.7135C52.4242 46.6646 52.4144 48.2164 53.3655 49.1799L56.854 45.7357ZM61.1603 18.6946C62.1124 17.732 62.1036 16.18 61.1407 15.2281C60.1782 14.2763 58.6261 14.2851 57.6744 15.2477L61.1603 18.6946ZM53.3668 19.6044C52.4147 20.567 52.4235 22.119 53.3864 23.0709C54.3489 24.0227 55.901 24.0139 56.8527 23.0512L53.3668 19.6044ZM47.3966 55.6874C47.3966 54.3336 46.2991 53.2361 44.9454 53.2361C43.5916 53.2361 42.4941 54.3336 42.4941 55.6874H47.3966ZM42.4941 59.2073C42.4941 60.561 43.5916 61.6585 44.9454 61.6585C46.2991 61.6585 47.3966 60.561 47.3966 59.2073H42.4941ZM42.4941 16.9712C42.4941 18.3249 43.5916 19.4224 44.9454 19.4224C46.2991 19.4224 47.3966 18.3249 47.3966 16.9712H42.4941ZM47.3966 13.4512C47.3966 12.0975 46.2991 11 44.9454 11C43.5916 11 42.4941 12.0975 42.4941 13.4512H47.3966ZM2 27.531C2 28.8848 3.09746 29.9822 4.45122 29.9822C5.80498 29.9822 6.90244 28.8848 6.90244 27.531H2ZM6.90244 24.0111C6.90244 22.6573 5.80498 21.5599 4.45122 21.5599C3.09746 21.5599 2 22.6573 2 24.0111H6.90244ZM2 48.6475C2 50.0012 3.09746 51.0987 4.45122 51.0987C5.80498 51.0987 6.90244 50.0012 6.90244 48.6475H2ZM6.90244 45.1275C6.90244 43.7738 5.80498 42.6763 4.45122 42.6763C3.09746 42.6763 2 43.7738 2 45.1275H6.90244ZM15.4624 45.7514C14.141 45.4573 12.8312 46.2897 12.5368 47.6111C12.2424 48.9325 13.075 50.2424 14.3963 50.5369L15.4624 45.7514ZM27.9369 53.5535C29.2582 53.8476 30.5681 53.0152 30.8626 51.6938C31.1568 50.3725 30.3243 49.0625 29.003 48.7681L27.9369 53.5535ZM66.5488 31.94H60.4567V36.8424H66.5488V31.94ZM61.1551 50.0924L56.854 45.7357L53.3655 49.1799L57.6665 53.5365L61.1551 50.0924ZM57.6744 15.2477L53.3668 19.6044L56.8527 23.0512L61.1603 18.6946L57.6744 15.2477ZM42.4941 55.6874V59.2073H47.3966V55.6874H42.4941ZM47.3966 16.9712V13.4512H42.4941V16.9712H47.3966ZM6.90244 27.531V24.0111H2V27.531H6.90244ZM6.90244 48.6475V45.1275H2V48.6475H6.90244ZM14.3963 50.5369L27.9369 53.5535L29.003 48.7681L15.4624 45.7514L14.3963 50.5369Z" fill="url(#paint1_linear_3_134)"/>
<defs>
<linearGradient id="paint0_linear_3_134" x1="24.9707" y1="16.699" x2="24.9707" y2="58.935" gradientUnits="userSpaceOnUse">
<stop stop-color="#95FB9D"/>
<stop offset="1" stop-color="#FFFB00"/>
</linearGradient>
<linearGradient id="paint1_linear_3_134" x1="35.5" y1="11" x2="35.5" y2="61.6585" gradientUnits="userSpaceOnUse">
<stop stop-color="#95FB9D"/>
<stop offset="1" stop-color="#FFFB00"/>
</linearGradient>
</defs>
</svg>
