<svg width="28" height="25" viewBox="0 0 28 25" fill="none" xmlns="http://www.w3.org/2000/svg">
<path d="M3.38907 12.8936C2.45067 12.8936 1.51226 13.2826 0.84438 14.0435C0.244142 14.7197 -0.0517519 15.5906 0.00742699 16.4951C0.0666059 17.3997 0.472411 18.2197 1.14874 18.8199L7.22726 24.1545C7.8444 24.6957 8.6391 25 9.45915 25C9.55215 25 9.64515 25 9.73813 24.9916C10.6512 24.9154 11.505 24.4674 12.08 23.7572L26.9676 5.53008C28.1512 4.08442 27.9315 1.94553 26.4858 0.761955C25.784 0.195524 24.9048 -0.0750122 24.0087 0.0179875C23.1126 0.110987 22.3009 0.54215 21.7261 1.24383L9.05336 16.7487L5.61251 13.7306C4.97846 13.1726 4.17531 12.8936 3.38907 12.8936Z" fill="url(#paint0_linear_241_474)"/>
<path d="M9.45902 24.3896C8.78269 24.3896 8.13173 24.1444 7.62447 23.6963L1.54595 18.3617C0.396197 17.3473 0.277839 15.5888 1.29233 14.4391C2.30683 13.2892 4.06529 13.1709 5.21505 14.1855L9.12932 17.6179L22.1909 1.62258C23.1631 0.430554 24.9132 0.261465 26.1052 1.22524C27.2972 2.19746 27.4663 3.94747 26.5026 5.13949L11.6063 23.3666C11.1329 23.95 10.4312 24.3135 9.68729 24.3811C9.6112 24.3811 9.53511 24.3896 9.45902 24.3896Z" fill="url(#paint1_linear_241_474)"/>
<defs>
<linearGradient id="paint0_linear_241_474" x1="19.5229" y1="-25.9036" x2="10.6466" y2="30.1444" gradientUnits="userSpaceOnUse">
<stop stop-color="#00CC00"/>
<stop offset="0.1878" stop-color="#06C102"/>
<stop offset="0.5185" stop-color="#17A306"/>
<stop offset="0.9507" stop-color="#33740C"/>
<stop offset="1" stop-color="#366E0D"/>
</linearGradient>
<linearGradient id="paint1_linear_241_474" x1="18.6722" y1="-4.31662" x2="7.10908" y2="29.7055" gradientUnits="userSpaceOnUse">
<stop offset="0.2544" stop-color="#90D856"/>
<stop offset="0.736" stop-color="#00CC00"/>
<stop offset="0.7716" stop-color="#0BCD07"/>
<stop offset="0.8342" stop-color="#29CF18"/>
<stop offset="0.9166" stop-color="#59D335"/>
<stop offset="1" stop-color="#90D856"/>
</linearGradient>
</defs>
</svg>
