<svg width="40" height="39" viewBox="0 0 40 39" fill="none" xmlns="http://www.w3.org/2000/svg">
<rect width="40" height="39" rx="11" fill="white" fill-opacity="0.1"/>
<path d="M17.3834 10.5883L18.2488 12.1388C19.0297 13.5381 18.7162 15.3738 17.4862 16.6038C17.4862 16.6038 15.9945 18.0958 18.6993 20.8007C21.4033 23.5047 22.8962 22.0138 22.8962 22.0138C24.1262 20.7838 25.9618 20.4703 27.3612 21.2512L28.9117 22.1166C31.0248 23.2958 31.2742 26.259 29.417 28.1163C28.301 29.2323 26.9338 30.1007 25.4225 30.1579C22.8784 30.2544 18.5577 29.6106 14.2236 25.2764C9.88949 20.9423 9.2456 16.6217 9.34205 14.0775C9.39934 12.5662 10.2677 11.199 11.3837 10.083C13.241 8.22575 16.2042 8.47529 17.3834 10.5883Z" stroke="white" stroke-width="2" stroke-linecap="round"/>
</svg>
