<svg  viewBox="0 0 54 54" fill="none" xmlns="http://www.w3.org/2000/svg">
<path d="M26.8758 41.9922C13.819 41.9922 7.68256 28.1292 7.41381 27.5469C7.3251 27.3339 7.27943 27.1057 7.27943 26.875C7.27943 26.6443 7.3251 26.4161 7.41381 26.2031C7.68256 25.6208 13.819 11.7578 26.8758 11.7578C39.9326 11.7578 46.069 25.6208 46.3378 26.2031C46.4265 26.4161 46.4721 26.6443 46.4721 26.875C46.4721 27.1057 46.4265 27.3339 46.3378 27.5469C46.069 28.1292 39.9326 41.9922 26.8758 41.9922ZM10.818 26.875C12.1393 29.4505 17.5367 38.6328 26.8758 38.6328C36.2148 38.6328 41.6122 29.4505 42.9336 26.875C41.6122 24.2995 36.2148 15.1172 26.8758 15.1172C17.5367 15.1172 12.1393 24.2995 10.818 26.875Z" fill="white"/>
<path d="M26.8742 34.1534C25.4346 34.1534 24.0275 33.7266 22.8304 32.9268C21.6334 32.1271 20.7005 30.9903 20.1496 29.6602C19.5987 28.3303 19.4546 26.8667 19.7354 25.4549C20.0163 24.0428 20.7095 22.7459 21.7274 21.728C22.7453 20.7101 24.0422 20.0169 25.4543 19.736C26.8661 19.4552 28.3297 19.5993 29.6596 20.1502C30.9897 20.7011 32.1265 21.634 32.9262 22.831C33.726 24.0281 34.1528 25.4352 34.1528 26.8748C34.147 28.8033 33.3782 30.6514 32.0145 32.0151C30.6508 33.3788 28.8027 34.1476 26.8742 34.1534ZM26.8742 22.9555C26.0991 22.9555 25.3412 23.1853 24.6969 23.616C24.0523 24.0467 23.55 24.6587 23.2532 25.3749C22.9567 26.0912 22.879 26.8791 23.0302 27.6394C23.1816 28.3997 23.5547 29.098 24.1029 29.6461C24.651 30.1943 25.3493 30.5676 26.1096 30.7188C26.8699 30.87 27.6578 30.7923 28.374 30.4958C29.0903 30.199 29.7023 29.6967 30.133 29.0521C30.5637 28.4078 30.7935 27.6499 30.7935 26.8748C30.7876 25.8372 30.3729 24.8437 29.639 24.11C28.9053 23.3761 27.9118 22.9613 26.8742 22.9555Z" fill="white"/>
</svg>
