<svg width="40" height="41" viewBox="0 0 40 41" fill="none" xmlns="http://www.w3.org/2000/svg">
<path fill-rule="evenodd" clip-rule="evenodd" d="M2.62439 15.6439L25.1211 9.77734V31.2863L15.9681 28.7715C16.1201 31.0303 14.4591 33.0049 12.2078 33.2418C9.9149 32.9938 8.24231 30.9562 8.44558 28.6589V27.0956L2.62439 25.4197V15.6439Z" stroke="url(#paint0_linear_168_69)" stroke-width="3" stroke-linecap="round" stroke-linejoin="round"/>
<path d="M36.9715 20.968C37.7236 20.968 38.3333 20.3583 38.3333 19.6062C38.3333 18.8541 37.7236 18.2444 36.9715 18.2444V20.968ZM33.587 18.2444C32.8349 18.2444 32.2252 18.8541 32.2252 19.6062C32.2252 20.3583 32.8349 20.968 33.587 20.968V18.2444ZM32.0369 30.2425C32.5653 30.7778 33.4274 30.7832 33.9627 30.2548C34.498 29.7265 34.5034 28.8643 33.975 28.3291L32.0369 30.2425ZM31.5855 25.9087C31.0572 25.3734 30.1951 25.368 29.6598 25.8964C29.1245 26.4247 29.1191 27.2869 29.6474 27.8221L31.5855 25.9087ZM33.9779 10.8859C34.5069 10.3511 34.502 9.48883 33.967 8.96004C33.4323 8.43125 32.57 8.43612 32.0413 8.97094L33.9779 10.8859ZM29.6482 11.3913C29.1193 11.9261 29.1242 12.7883 29.6591 13.3171C30.1938 13.8459 31.0561 13.841 31.5848 13.3062L29.6482 11.3913ZM26.3314 31.4374C26.3314 30.6853 25.7217 30.0756 24.9696 30.0756C24.2175 30.0756 23.6078 30.6853 23.6078 31.4374H26.3314ZM23.6078 33.3929C23.6078 34.145 24.2175 34.7547 24.9696 34.7547C25.7217 34.7547 26.3314 34.145 26.3314 33.3929H23.6078ZM23.6078 9.9284C23.6078 10.6805 24.2175 11.2902 24.9696 11.2902C25.7217 11.2902 26.3314 10.6805 26.3314 9.9284H23.6078ZM26.3314 7.97287C26.3314 7.22078 25.7217 6.61108 24.9696 6.61108C24.2175 6.61108 23.6078 7.22078 23.6078 7.97287H26.3314ZM1.11108 15.795C1.11108 16.5471 1.72078 17.1568 2.47287 17.1568C3.22496 17.1568 3.83466 16.5471 3.83466 15.795H1.11108ZM3.83466 13.8395C3.83466 13.0874 3.22496 12.4777 2.47287 12.4777C1.72078 12.4777 1.11108 13.0874 1.11108 13.8395H3.83466ZM1.11108 27.5263C1.11108 28.2784 1.72078 28.8881 2.47287 28.8881C3.22496 28.8881 3.83466 28.2784 3.83466 27.5263H1.11108ZM3.83466 25.5708C3.83466 24.8187 3.22496 24.209 2.47287 24.209C1.72078 24.209 1.11108 24.8187 1.11108 25.5708H3.83466ZM8.59019 25.9174C7.85609 25.754 7.12841 26.2165 6.96487 26.9506C6.80131 27.6847 7.26384 28.4124 7.99794 28.576L8.59019 25.9174ZM15.5205 30.2519C16.2545 30.4153 16.9823 29.9529 17.1459 29.2188C17.3093 28.4847 16.8468 27.7569 16.1127 27.5933L15.5205 30.2519ZM36.9715 18.2444H33.587V20.968H36.9715V18.2444ZM33.975 28.3291L31.5855 25.9087L29.6474 27.8221L32.0369 30.2425L33.975 28.3291ZM32.0413 8.97094L29.6482 11.3913L31.5848 13.3062L33.9779 10.8859L32.0413 8.97094ZM23.6078 31.4374V33.3929H26.3314V31.4374H23.6078ZM26.3314 9.9284V7.97287H23.6078V9.9284H26.3314ZM3.83466 15.795V13.8395H1.11108V15.795H3.83466ZM3.83466 27.5263V25.5708H1.11108V27.5263H3.83466ZM7.99794 28.576L15.5205 30.2519L16.1127 27.5933L8.59019 25.9174L7.99794 28.576Z" fill="url(#paint1_linear_168_69)"/>
<defs>
<linearGradient id="paint0_linear_168_69" x1="13.8728" y1="9.77734" x2="13.8728" y2="33.2418" gradientUnits="userSpaceOnUse">
<stop stop-color="#95FB9D"/>
<stop offset="1" stop-color="#FFFB00"/>
</linearGradient>
<linearGradient id="paint1_linear_168_69" x1="19.7222" y1="6.61108" x2="19.7222" y2="34.7547" gradientUnits="userSpaceOnUse">
<stop stop-color="#95FB9D"/>
<stop offset="1" stop-color="#FFFB00"/>
</linearGradient>
</defs>
</svg>
