<svg width="30" height="31" viewBox="0 0 30 31" fill="none" xmlns="http://www.w3.org/2000/svg">
<g clip-path="url(#clip0_168_46)">
<path d="M19.3807 7.13275C19.6595 7.55655 19.5417 8.126 19.1177 8.40463C18.9071 8.54306 18.7089 8.70634 18.5287 8.89008C18.3488 9.07345 18.1108 9.1654 17.8727 9.1654C17.6406 9.1654 17.4083 9.07804 17.2294 8.90269C16.8672 8.54753 16.8615 7.96608 17.2168 7.604C17.4885 7.32702 17.7885 7.07998 18.1083 6.86979C18.5324 6.59122 19.102 6.70896 19.3807 7.13275ZM27.3686 18.0021C27.2764 18.0962 18.256 27.2901 18.256 27.2901C17.3873 28.1755 16.2309 28.6632 14.9999 28.6632C13.7689 28.6632 12.6125 28.1755 11.7438 27.2901L2.63118 18.0021C-0.877224 14.4262 -0.877224 8.60777 2.63118 5.03189C4.33641 3.29385 6.6049 2.33667 9.01886 2.33667C11.2455 2.33667 13.3487 3.1512 14.9999 4.64165C16.6512 3.1512 18.7542 2.33667 20.9808 2.33667C23.3948 2.33667 25.6633 3.29385 27.3685 5.03183C30.877 8.60777 30.877 14.4262 27.3686 18.0021ZM26.0568 6.31798C24.6999 4.93504 22.8973 4.1734 20.9809 4.1734C19.0645 4.1734 17.2618 4.93498 15.905 6.31792C15.8363 6.38796 15.7747 6.473 15.6884 6.54916C15.227 6.95655 14.686 6.9361 14.3114 6.54916C14.2313 6.46638 14.1635 6.38796 14.0948 6.31792C12.7379 4.93504 10.9353 4.1734 9.01886 4.1734C7.10247 4.1734 5.29984 4.93498 3.94298 6.31792C1.13033 9.18469 1.13033 13.8493 3.94298 16.716C4.02667 16.8013 13.0556 26.004 13.0556 26.004C13.5759 26.5344 14.2664 26.8265 14.9999 26.8265C15.7333 26.8265 16.4238 26.5344 16.9442 26.004L26.0568 16.7161C28.8694 13.8493 28.8694 9.18475 26.0568 6.31798ZM24.7449 7.60406C24.1954 7.04398 23.5526 6.62171 22.8342 6.34902C22.36 6.16908 21.8293 6.40736 21.6492 6.88155C21.4691 7.35567 21.7076 7.88606 22.1819 8.06612C22.65 8.24379 23.071 8.52108 23.4331 8.89014C24.8542 10.3386 24.8542 12.6954 23.4331 14.1439L20.2098 17.4292C19.8545 17.7914 19.8601 18.3728 20.2224 18.7279C20.4012 18.9032 20.6335 18.9907 20.8656 18.9907C21.1037 18.9907 21.3417 18.8987 21.5216 18.7153L24.7449 15.43C26.8618 13.2723 26.8618 9.76167 24.7449 7.60406Z" fill="url(#paint0_linear_168_46)"/>
</g>
<defs>
<linearGradient id="paint0_linear_168_46" x1="14.9999" y1="2.33667" x2="14.9999" y2="28.6632" gradientUnits="userSpaceOnUse">
<stop stop-color="#E936A5"/>
<stop offset="1" stop-color="#FF9597"/>
</linearGradient>
<clipPath id="clip0_168_46">
<rect width="30" height="30" fill="white" transform="translate(0 0.5)"/>
</clipPath>
</defs>
</svg>
