<svg width="108" height="68" viewBox="0 0 108 68" fill="none" xmlns="http://www.w3.org/2000/svg">
<path d="M0.84375 13.5C0.84375 6.19948 6.76199 0.28125 14.0625 0.28125H93.9375C101.238 0.28125 107.156 6.19949 107.156 13.5V54.0004C107.156 61.3009 101.238 67.2191 93.9375 67.2191H14.0625C6.76198 67.2191 0.84375 61.3009 0.84375 54.0004V13.5Z" fill="url(#paint0_radial_88_194)"/>
<path d="M0.84375 13.5C0.84375 6.19948 6.76199 0.28125 14.0625 0.28125H93.9375C101.238 0.28125 107.156 6.19949 107.156 13.5V54.0004C107.156 61.3009 101.238 67.2191 93.9375 67.2191H14.0625C6.76198 67.2191 0.84375 61.3009 0.84375 54.0004V13.5Z" stroke="#2D2D2D" stroke-width="0.5625"/>
<path d="M32.4375 37.5C32.4375 30.0754 32.4375 26.3631 34.744 24.0565C37.0506 21.75 40.7629 21.75 48.1875 21.75H56.0625C63.487 21.75 67.1995 21.75 69.5059 24.0565C71.8125 26.3631 71.8125 30.0754 71.8125 37.5C71.8125 44.9245 71.8125 48.637 69.5059 50.9434C67.1995 53.25 63.487 53.25 56.0625 53.25H48.1875C40.7629 53.25 37.0506 53.25 34.744 50.9434C32.4375 48.637 32.4375 44.9245 32.4375 37.5Z" stroke="white" stroke-width="2.8125"/>
<path d="M67.2726 34.9217L65.5452 33.9899C64.6675 35.617 63.4851 36.6908 61.9409 37.2591C61.7314 37.0861 61.5041 36.9043 61.2599 36.7167C62.6131 35.7328 63.7055 34.2835 64.5182 32.3887L62.7145 31.615C61.9168 33.4747 60.8711 34.751 59.5281 35.5002C59.2536 35.3249 58.9781 35.1574 58.7022 34.9974C60.0224 33.8497 61.0579 32.2447 61.6865 30.3389L59.8226 29.7241C59.2036 31.6007 58.1293 33.1031 56.7708 34.0083C56.5038 33.8893 56.2367 33.7774 55.9696 33.673C57.0112 32.5051 57.8156 30.9788 58.303 29.2086L56.4107 28.6875C55.9032 30.5308 55.0089 32.0322 53.856 33.0007C53.613 32.9412 53.3706 32.8875 53.129 32.8409C53.259 32.6548 53.377 32.4711 53.4806 32.2995C54.0559 31.3461 54.4986 30.2696 54.6952 29.3462L52.7755 28.9373C52.4686 30.3782 51.4261 32.0967 50.7371 32.5919C50.686 32.5912 50.6347 32.5902 50.5837 32.5902C47.6116 32.5902 44.4152 33.6636 41.3403 35.6943C39.043 37.2115 37.6195 38.7206 37.56 38.784L36.9316 39.4548L37.5599 40.1257C37.6194 40.1892 39.0429 41.6983 41.3401 43.2154C44.4151 45.2462 47.6114 46.3196 50.5836 46.3196C53.5557 46.3196 56.7521 45.2462 59.827 43.2154C62.1243 41.6984 63.5478 40.1892 63.6073 40.1257L64.2355 39.4548L63.6073 38.7839C63.6002 38.7764 63.5734 38.7481 63.5291 38.7024C65.0895 37.9075 66.3449 36.6416 67.2726 34.9217ZM43.7952 42.4046C41.943 41.3764 40.494 40.1812 39.691 39.4538C40.4939 38.7245 41.9432 37.5269 43.7987 36.498C43.3284 37.394 43.0647 38.3968 43.0647 39.4549C43.0647 40.5101 43.3271 41.5105 43.7952 42.4046ZM50.5836 44.3568C47.5199 44.3568 45.0275 42.1578 45.0275 39.4548C45.0275 36.7519 47.5199 34.5528 50.5836 34.5528C53.6473 34.5528 56.1397 36.7519 56.1397 39.4548C56.1397 42.1578 53.6472 44.3568 50.5836 44.3568ZM57.3685 42.4116C57.8388 41.5157 58.1025 40.5129 58.1025 39.4548C58.1025 38.3995 57.8401 37.3991 57.3721 36.505C59.224 37.5331 60.673 38.7282 61.4762 39.4558C60.6733 40.1851 59.2239 41.3828 57.3685 42.4116Z" fill="white"/>
<path d="M50.5829 41.9648C51.969 41.9648 53.0927 40.8412 53.0927 39.4551C53.0927 38.069 51.969 36.9454 50.5829 36.9454C49.1969 36.9454 48.0732 38.069 48.0732 39.4551C48.0732 40.8412 49.1969 41.9648 50.5829 41.9648Z" fill="white"/>
<path d="M60 21.75C60 18.0377 60 16.1815 58.8467 15.0283C57.6934 13.875 55.8373 13.875 52.125 13.875C48.4127 13.875 46.5565 13.875 45.4033 15.0283C44.25 16.1815 44.25 18.0377 44.25 21.75" stroke="white" stroke-width="2.8125"/>
<defs>
<radialGradient id="paint0_radial_88_194" cx="0" cy="0" r="1" gradientUnits="userSpaceOnUse" gradientTransform="translate(54 33.7502) rotate(90) scale(33.7502 53.4375)">
<stop stop-color="#CC631C"/>
<stop offset="1" stop-color="#FF7D26"/>
</radialGradient>
</defs>
</svg>
