<svg width="17" height="15" viewBox="0 0 17 15" fill="none" xmlns="http://www.w3.org/2000/svg">
<path d="M2.3116 7.91615C1.77754 7.91615 1.24347 8.13751 0.863366 8.57055C0.521759 8.95542 0.353359 9.45102 0.387039 9.96582C0.420719 10.4806 0.651671 10.9473 1.03658 11.2889L4.49599 14.3249C4.84722 14.6329 5.2995 14.8061 5.7662 14.8061C5.81913 14.8061 5.87206 14.8061 5.92498 14.8013C6.44462 14.758 6.93057 14.503 7.25777 14.0989L15.7306 3.7254C16.4042 2.90265 16.2792 1.68537 15.4564 1.01177C15.057 0.689402 14.5566 0.535434 14.0466 0.588362C13.5366 0.64129 13.0747 0.886673 12.7476 1.28602L5.53526 10.1101L3.57701 8.39246C3.21615 8.07495 2.75907 7.91615 2.3116 7.91615Z" fill="url(#paint0_linear_241_664)"/>
<path d="M5.76654 14.4601C5.38163 14.4601 5.01115 14.3206 4.72247 14.0655L1.26306 11.0296C0.608708 10.4522 0.541348 9.45139 1.11871 8.79708C1.69609 8.14268 2.69686 8.07532 3.35121 8.65276L5.57891 10.6062L13.0125 1.50296C13.5658 0.82455 14.5618 0.728318 15.2402 1.27682C15.9186 1.83013 16.0148 2.8261 15.4664 3.5045L6.98863 13.8779C6.71919 14.2099 6.31986 14.4168 5.89646 14.4553C5.85315 14.4553 5.80985 14.4601 5.76654 14.4601Z" fill="url(#paint1_linear_241_664)"/>
<defs>
<linearGradient id="paint0_linear_241_664" x1="11.4937" y1="-14.1642" x2="6.44198" y2="17.7339" gradientUnits="userSpaceOnUse">
<stop stop-color="#00CC00"/>
<stop offset="0.1878" stop-color="#06C102"/>
<stop offset="0.5185" stop-color="#17A306"/>
<stop offset="0.9507" stop-color="#33740C"/>
<stop offset="1" stop-color="#366E0D"/>
</linearGradient>
<linearGradient id="paint1_linear_241_664" x1="11.0099" y1="-1.87716" x2="4.42915" y2="17.4855" gradientUnits="userSpaceOnUse">
<stop offset="0.2544" stop-color="#90D856"/>
<stop offset="0.736" stop-color="#00CC00"/>
<stop offset="0.7716" stop-color="#0BCD07"/>
<stop offset="0.8342" stop-color="#29CF18"/>
<stop offset="0.9166" stop-color="#59D335"/>
<stop offset="1" stop-color="#90D856"/>
</linearGradient>
</defs>
</svg>
