<svg width="108" height="68" viewBox="0 0 108 68" fill="none" xmlns="http://www.w3.org/2000/svg">
<path d="M0.843749 14.0003C0.843749 6.69986 6.76196 0.781646 14.0624 0.781646H93.9376C101.238 0.781646 107.156 6.69986 107.156 14.0003V54.2189C107.156 61.5193 101.238 67.4376 93.9376 67.4376H14.0624C6.76196 67.4376 0.843749 61.5193 0.843749 54.2189V14.0003Z" fill="#00B562"/>
<path d="M0.843749 14.0003C0.843749 6.69986 6.76196 0.781646 14.0624 0.781646H93.9376C101.238 0.781646 107.156 6.69986 107.156 14.0003V54.2189C107.156 61.5193 101.238 67.4376 93.9376 67.4376H14.0624C6.76196 67.4376 0.843749 61.5193 0.843749 54.2189V14.0003Z" stroke="#2D2D2D" stroke-width="0.562498"/>
<path d="M25.1367 46.9053H22.7109C20.9246 46.9053 19.4766 45.4573 19.4766 43.671V21.0305C19.4766 19.2443 20.9246 17.7962 22.7109 17.7962H45.3516C47.1379 17.7962 48.5859 19.2443 48.5859 21.0305V43.671C48.5859 45.4573 47.1379 46.9053 45.3516 46.9053H42.9258M34.0312 45.2882C36.7108 45.2882 38.8828 43.1161 38.8828 40.4366C38.8828 37.7571 36.7108 35.5851 34.0312 35.5851C31.3517 35.5851 29.1797 37.7571 29.1797 40.4366C29.1797 43.1161 31.3517 45.2882 34.0312 45.2882ZM34.0312 45.2882L34.0659 45.2878L28.9026 50.4512L24.3285 45.877L29.2115 40.9941M34.0312 45.2882L39.1946 50.4512L43.7687 45.877L38.8857 40.9941M29.1797 24.2649H38.8828M25.9453 29.925H42.1172" stroke="white" stroke-width="2.24999" stroke-linecap="round" stroke-linejoin="round"/>
<path d="M69.1172 44.7619H78.8203M65.8828 39.1018H82.0547M62.6484 18.0785H85.2891C87.0754 18.0785 88.5234 19.6875 88.5234 21.6722V46.8283C88.5234 48.8131 87.0754 50.422 85.2891 50.422H62.6484C60.8621 50.422 59.4141 48.8131 59.4141 46.8283V21.6722C59.4141 19.6875 60.8621 18.0785 62.6484 18.0785ZM73.9649 24.89C72.8332 23.6299 70.9461 23.291 69.5282 24.4448C68.1103 25.5986 67.9107 27.5276 69.0241 28.8922C70.1376 30.2568 73.9649 33.4417 73.9649 33.4417C73.9649 33.4417 77.7921 30.2568 78.9055 28.8922C80.0191 27.5276 79.8438 25.5864 78.4016 24.4448C76.9593 23.3032 75.0966 23.6299 73.9649 24.89Z" stroke="white" stroke-width="2.24999" stroke-linecap="round" stroke-linejoin="round"/>
</svg>
