<svg width="108" height="68" viewBox="0 0 108 68" fill="none" xmlns="http://www.w3.org/2000/svg">
<path d="M0.84375 14.2188C0.84375 6.9183 6.76199 1.00006 14.0625 1.00006H93.9375C101.238 1.00006 107.156 6.9183 107.156 14.2188V54.1563C107.156 61.4568 101.238 67.3751 93.9375 67.3751H14.0625C6.76198 67.3751 0.84375 61.4568 0.84375 54.1563V14.2188Z" fill="url(#paint0_radial_88_232)"/>
<path d="M0.84375 14.2188C0.84375 6.9183 6.76199 1.00006 14.0625 1.00006H93.9375C101.238 1.00006 107.156 6.9183 107.156 14.2188V54.1563C107.156 61.4568 101.238 67.3751 93.9375 67.3751H14.0625C6.76198 67.3751 0.84375 61.4568 0.84375 54.1563V14.2188Z" stroke="#2D2D2D" stroke-width="0.5625"/>
<path d="M41.0451 38.4899L38.587 36.0318C37.5843 35.0291 37.5843 33.3796 38.587 32.3769L41.0451 29.9188C41.4655 29.4983 41.8051 28.6735 41.8051 28.0913V24.6143C41.8051 23.1912 42.9695 22.0269 44.3926 22.0269H47.8696C48.4518 22.0269 49.2765 21.6873 49.697 21.2669L52.1551 18.8087C53.1578 17.806 54.8073 17.806 55.81 18.8087L58.2681 21.2669C58.6886 21.6873 59.5133 22.0269 60.0955 22.0269H63.5725C64.9956 22.0269 66.16 23.1912 66.16 24.6143V28.0913C66.16 28.6735 66.4996 29.4983 66.9201 29.9188L69.3782 32.3769C70.3808 33.3796 70.3808 35.0291 69.3782 36.0318L66.9201 38.4899C66.4996 38.9104 66.16 39.7351 66.16 40.3173V43.7941C66.16 45.2172 64.9956 46.3818 63.5725 46.3818H60.0955C59.5133 46.3818 58.6886 46.7214 58.2681 47.1418L55.81 49.6C54.8073 50.6026 53.1578 50.6026 52.1551 49.6L49.697 47.1418C49.2765 46.7214 48.4518 46.3818 47.8696 46.3818H44.3926C42.9695 46.3818 41.8051 45.2172 41.8051 43.7941V40.3173C41.8051 39.7189 41.4655 38.8942 41.0451 38.4899Z" stroke="white" stroke-width="2.42578" stroke-linecap="round" stroke-linejoin="round"/>
<path d="M49.1484 39.0391L58.8516 29.336" stroke="white" stroke-width="2.42578" stroke-linecap="round" stroke-linejoin="round"/>
<path d="M58.0342 38.2305H58.0487" stroke="white" stroke-width="3.23438" stroke-linecap="round" stroke-linejoin="round"/>
<path d="M49.9482 30.1446H49.9628" stroke="white" stroke-width="3.23438" stroke-linecap="round" stroke-linejoin="round"/>
<defs>
<radialGradient id="paint0_radial_88_232" cx="0" cy="0" r="1" gradientUnits="userSpaceOnUse" gradientTransform="translate(54 34.1876) rotate(90) scale(33.4688 53.4375)">
<stop stop-color="#2C6AF3"/>
<stop offset="1" stop-color="#3E6DD5"/>
</radialGradient>
</defs>
</svg>
