<svg width="40" height="22" viewBox="0 0 40 22" fill="none" xmlns="http://www.w3.org/2000/svg">
<path d="M5.55176 14.2313C15.1035 22.6715 29.4999 22.672 39.052 14.2324C29.4999 5.79175 15.1038 5.79036 5.55176 14.2313Z" fill="white"/>
<path d="M22.3012 20.5617C25.7972 20.5617 28.6314 17.7275 28.6314 14.2315C28.6314 10.7354 25.7972 7.90125 22.3012 7.90125C18.8051 7.90125 15.9709 10.7354 15.9709 14.2315C15.9709 17.7275 18.8051 20.5617 22.3012 20.5617Z" fill="#02E7FF"/>
<path d="M22.3012 17.0755C23.8718 17.0755 25.1451 15.8022 25.1451 14.2316C25.1451 12.6609 23.8718 11.3877 22.3012 11.3877C20.7305 11.3877 19.4573 12.6609 19.4573 14.2316C19.4573 15.8022 20.7305 17.0755 22.3012 17.0755Z" fill="#0E4675"/>
<path d="M19.455 14.2315C19.455 15.8015 20.7323 17.0786 22.302 17.0786C23.872 17.0786 25.1493 15.8013 25.1493 14.2315C25.1493 12.6615 23.872 11.3843 22.302 11.3843C20.7321 11.3843 19.455 12.6616 19.455 14.2315Z" fill="url(#paint0_linear_168_59)"/>
<path d="M39.6799 13.522C37.0851 11.2293 34.1448 9.53815 31.0404 8.44604C30.683 7.67228 30.6072 6.80604 30.8305 5.97262C31.0833 5.02929 31.6883 4.24088 32.5341 3.75256C32.9874 3.49085 33.1428 2.91104 32.8811 2.45766C32.6194 2.00445 32.0399 1.84896 31.5862 2.11068C30.3017 2.85211 29.3831 4.04938 28.9992 5.48201C28.7943 6.24693 28.7566 7.02978 28.8773 7.78906C27.3844 7.40475 25.8646 7.15376 24.3363 7.03567C23.1375 5.60075 23.2109 3.45574 24.5579 2.10863C24.928 1.73848 24.928 1.13821 24.5579 0.767905C24.1876 0.39784 23.5874 0.39784 23.2172 0.767905C21.5464 2.43892 21.1665 4.91807 22.075 6.95801C20.5377 6.97118 19.0014 7.11808 17.4852 7.39935C16.7867 6.90776 16.2864 6.19456 16.0627 5.3595C15.81 4.41617 15.9396 3.43078 16.428 2.585C16.6898 2.13163 16.5345 1.5519 16.081 1.2901C15.6275 1.02831 15.0478 1.18372 14.7861 1.63709C14.0446 2.92151 13.8476 4.41764 14.2313 5.85011C14.4361 6.61438 14.7944 7.31056 15.2779 7.90739C13.8024 8.3151 12.3553 8.85293 10.9556 9.5226C10.1581 9.22766 9.49409 8.66945 9.06363 7.92384C8.57531 7.07806 8.44552 6.09275 8.69831 5.14934C8.83383 4.64368 8.53374 4.12393 8.02799 3.98841C7.52208 3.85256 7.00258 4.15299 6.86697 4.65873C6.48316 6.0912 6.68014 7.5875 7.42174 8.87175C7.81669 9.55599 8.34199 10.135 8.9624 10.5861C7.65604 11.357 6.40239 12.2509 5.21773 13.2673C3.35791 13.0978 1.89599 11.5303 1.89599 9.6271C1.89599 9.10368 1.4715 8.67911 0.947993 8.67911C0.424486 8.67911 0 9.1036 0 9.6271C0 12.5648 2.29371 14.9754 5.18401 15.1657C10.0511 19.3552 16.0898 21.4684 22.1408 21.5055C22.1946 21.5067 22.248 21.5096 22.302 21.5096C22.3557 21.5096 22.4087 21.5067 22.462 21.5055C28.6202 21.4683 34.7691 19.2812 39.6797 14.9426C39.8833 14.7627 40 14.504 40 14.2322C40.0001 13.9606 39.8835 13.7018 39.6799 13.522ZM27.6843 14.2315C27.6843 17.1666 25.3221 19.5591 22.3991 19.6112C22.3345 19.6115 22.2697 19.6115 22.2051 19.6112C19.2821 19.5591 16.9198 17.1667 16.9198 14.2315C16.9198 11.2822 19.3046 8.88043 22.247 8.85056C22.284 8.85048 22.321 8.85048 22.3578 8.85056C25.2999 8.88076 27.6843 11.2824 27.6843 14.2315ZM11.3771 11.4278C11.4339 11.4061 11.4885 11.3793 11.54 11.3471C13.2296 10.5159 14.9952 9.89201 16.7994 9.47587C15.6946 10.7525 15.0239 12.4147 15.0239 14.2315C15.0239 16.0477 15.6943 17.7094 16.7985 18.986C13.3032 18.1798 9.95155 16.5951 7.02099 14.2312C8.39036 13.1264 9.85204 12.1925 11.3771 11.4278ZM27.8055 18.9862C28.9099 17.7097 29.5803 16.0479 29.5803 14.2315C29.5803 12.415 28.9098 10.7532 27.8053 9.47669C28.5504 9.64863 29.2887 9.85682 30.0181 10.0994L30.021 10.1004C32.7121 10.9963 35.278 12.3728 37.5832 14.2324C34.6524 16.5958 31.3007 18.1802 27.8055 18.9862Z" fill="url(#paint1_linear_168_59)"/>
<defs>
<linearGradient id="paint0_linear_168_59" x1="22.3021" y1="11.3843" x2="22.3021" y2="17.0786" gradientUnits="userSpaceOnUse">
<stop stop-color="#8E8EED"/>
<stop offset="1" stop-color="#045675"/>
</linearGradient>
<linearGradient id="paint1_linear_168_59" x1="20" y1="0.490356" x2="20" y2="21.5096" gradientUnits="userSpaceOnUse">
<stop stop-color="#8E8EED"/>
<stop offset="1" stop-color="#045675"/>
</linearGradient>
</defs>
</svg>
