<svg width="108" height="69" viewBox="0 0 108 69" fill="none" xmlns="http://www.w3.org/2000/svg">
<path d="M0.84375 14.1563C0.84375 6.8558 6.76199 0.937561 14.0625 0.937561H93.9375C101.238 0.937561 107.156 6.8558 107.156 14.1563V54.6563C107.156 61.9568 101.238 67.8751 93.9375 67.8751H14.0625C6.76198 67.8751 0.84375 61.9568 0.84375 54.6563V14.1563Z" fill="url(#paint0_radial_88_247)" fill-opacity="0.75"/>
<path d="M0.84375 14.1563C0.84375 6.8558 6.76199 0.937561 14.0625 0.937561H93.9375C101.238 0.937561 107.156 6.8558 107.156 14.1563V54.6563C107.156 61.9568 101.238 67.8751 93.9375 67.8751H14.0625C6.76198 67.8751 0.84375 61.9568 0.84375 54.6563V14.1563Z" stroke="#2D2D2D" stroke-width="0.5625"/>
<path fill-rule="evenodd" clip-rule="evenodd" d="M73.174 14.7188H34.8261C34.4481 14.7188 34.1414 15.0256 34.1414 15.4036C34.1414 15.7816 34.4481 16.0884 34.8261 16.0884H36.3128C36.2368 16.3027 36.1957 16.5328 36.1957 16.7732V23.7415C36.1957 24.1195 36.5025 24.4263 36.8805 24.4263C37.2585 24.4263 37.5653 24.1195 37.5653 23.7415V19.1699H67.6957C68.0737 19.1699 68.3805 18.8631 68.3805 18.4851C68.3805 18.1071 68.0737 17.8003 67.6957 17.8003H37.5653V16.7732C37.5653 16.3952 37.8721 16.0884 38.2501 16.0884H69.7501C70.1281 16.0884 70.4348 16.3952 70.4348 16.7732V37.659C70.4348 38.037 70.1281 38.3438 69.7501 38.3438H54.0001V31.3248C54.0001 27.1647 50.6275 23.7922 46.4674 23.7922C46.0121 23.7922 45.5533 23.7922 45.0979 23.7922C40.9378 23.7922 37.5653 27.1647 37.5653 31.3248V43.3372C36.8093 43.5625 36.1135 43.9734 35.5452 44.5411C34.646 45.4402 34.1414 46.6591 34.1414 47.9308C34.1414 50.5323 34.1414 53.409 34.1414 53.409C34.1414 53.787 34.4481 54.0938 34.8261 54.0938H56.7392C57.1172 54.0938 57.424 53.787 57.424 53.409V47.9308C57.424 46.6591 56.9193 45.4402 56.0202 44.5411C55.4518 43.9734 54.7561 43.5625 54.0001 43.3372V39.7134H69.7501C70.8847 39.7134 71.8044 38.7937 71.8044 37.659V16.7732C71.8044 16.5328 71.7633 16.3027 71.6873 16.0884H73.174C73.552 16.0884 73.8587 15.7816 73.8587 15.4036C73.8587 15.0256 73.552 14.7188 73.174 14.7188ZM52.6305 44.5069H49.8345C49.5079 46.4489 47.8172 47.9308 45.7827 47.9308C43.7482 47.9308 42.0574 46.4489 41.7308 44.5069H38.9348C38.0268 44.5069 37.1558 44.8677 36.5134 45.5094C35.8718 46.1517 35.5109 47.0227 35.5109 47.9308V52.7242H38.2501V49.9851C38.2501 49.6071 38.5568 49.3003 38.9348 49.3003C39.3128 49.3003 39.6196 49.6071 39.6196 49.9851V52.7242H51.9457V49.9851C51.9457 49.6071 52.2525 49.3003 52.6305 49.3003C53.0085 49.3003 53.3153 49.6071 53.3153 49.9851V52.7242H56.0544V47.9308C56.0544 47.0227 55.6935 46.1517 55.0519 45.5094C54.4096 44.8677 53.5385 44.5069 52.6305 44.5069ZM48.4355 44.5069H43.1298C43.4345 45.6874 44.5076 46.5612 45.7827 46.5612C47.0577 46.5612 48.1308 45.6874 48.4355 44.5069ZM52.6305 43.1373H38.9348V31.3248C38.9348 27.9207 41.6938 25.1617 45.0979 25.1617C45.5533 25.1617 46.0121 25.1617 46.4674 25.1617C49.8715 25.1617 52.6305 27.9207 52.6305 31.3248V43.1373ZM51.2609 31.496C51.2609 31.118 50.9541 30.8112 50.5761 30.8112H46.2059L45.0253 28.4508C44.9096 28.2186 44.6726 28.0721 44.4131 28.0721C44.1536 28.0721 43.9166 28.2186 43.8009 28.4508L42.6203 30.8112H40.9892C40.6112 30.8112 40.3044 31.118 40.3044 31.496V38.3438C40.3044 40.2345 41.8376 41.7677 43.7283 41.7677C45.0164 41.7677 46.5489 41.7677 47.837 41.7677C49.7277 41.7677 51.2609 40.2345 51.2609 38.3438C51.2609 35.5102 51.2609 31.496 51.2609 31.496ZM49.8914 32.1808V38.3438C49.8914 39.4785 48.9717 40.3982 47.837 40.3982H43.7283C42.5936 40.3982 41.674 39.4785 41.674 38.3438V32.1808H43.0435C43.3031 32.1808 43.54 32.0342 43.6557 31.8021L44.4131 30.288L45.1705 31.8021C45.2862 32.0342 45.5231 32.1808 45.7827 32.1808H49.8914ZM59.8207 36.2895H67.6957C68.0737 36.2895 68.3805 35.9827 68.3805 35.6047C68.3805 35.2267 68.0737 34.9199 67.6957 34.9199H59.8207C59.4427 34.9199 59.1359 35.2267 59.1359 35.6047C59.1359 35.9827 59.4427 36.2895 59.8207 36.2895ZM57.424 32.8656H67.6957C68.0737 32.8656 68.3805 32.5588 68.3805 32.1808C68.3805 31.8028 68.0737 31.496 67.6957 31.496H57.424C57.046 31.496 56.7392 31.8028 56.7392 32.1808C56.7392 32.5588 57.046 32.8656 57.424 32.8656ZM57.424 29.4416H67.6957C68.0737 29.4416 68.3805 29.1349 68.3805 28.7569C68.3805 28.3789 68.0737 28.0721 67.6957 28.0721H57.424C57.046 28.0721 56.7392 28.3789 56.7392 28.7569C56.7392 29.1349 57.046 29.4416 57.424 29.4416ZM57.424 26.0177H67.6957C68.0737 26.0177 68.3805 25.7109 68.3805 25.3329C68.3805 24.9549 68.0737 24.6482 67.6957 24.6482H57.424C57.046 24.6482 56.7392 24.9549 56.7392 25.3329C56.7392 25.7109 57.046 26.0177 57.424 26.0177ZM52.6305 22.5938H67.6957C68.0737 22.5938 68.3805 22.287 68.3805 21.909C68.3805 21.531 68.0737 21.2242 67.6957 21.2242H52.6305C52.2525 21.2242 51.9457 21.531 51.9457 21.909C51.9457 22.287 52.2525 22.5938 52.6305 22.5938Z" fill="white" stroke="white" stroke-width="0.1125"/>
<defs>
<radialGradient id="paint0_radial_88_247" cx="0" cy="0" r="1" gradientUnits="userSpaceOnUse" gradientTransform="translate(54 34.4063) rotate(90) scale(33.75 53.4375)">
<stop stop-color="#C400FF"/>
<stop offset="1" stop-color="#D23EFF"/>
</radialGradient>
</defs>
</svg>
