<svg width="72" height="566" viewBox="0 0 72 566" fill="none" xmlns="http://www.w3.org/2000/svg">
<path d="M35.126 16.8359L35.126 522.863" stroke="url(#paint0_linear_241_739)" stroke-width="1.70189" stroke-dasharray="6.81 6.81"/>
<g filter="url(#filter0_d_241_739)">
<rect x="13" y="14" width="45.3836" height="45.3836" rx="22.6918" fill="black"/>
<rect x="13.549" y="14.549" width="44.2856" height="44.2856" rx="22.1428" stroke="#3D85F3" stroke-width="1.09799"/>
<path d="M34.8354 46.6914V32.3092H31.439V29.2407H38.4661V46.6914H34.8354Z" fill="url(#paint1_linear_241_739)"/>
</g>
<g filter="url(#filter1_d_241_739)">
<rect x="13" y="270" width="45.3836" height="45.3836" rx="22.6918" fill="black"/>
<rect x="13.549" y="270.549" width="44.2856" height="44.2856" rx="22.1428" stroke="#F71C9A" stroke-width="1.09799"/>
<path d="M29.6984 302.691V299.881L34.3832 295.055C35.3045 294.103 35.9994 293.353 36.4679 292.807C36.952 292.244 37.2799 291.776 37.4517 291.401C37.6391 291.026 37.7328 290.659 37.7328 290.3C37.7328 289.66 37.5219 289.16 37.1003 288.801C36.6943 288.426 36.179 288.239 35.5543 288.239C34.9141 288.239 34.3441 288.426 33.8444 288.801C33.3447 289.16 32.9777 289.715 32.7435 290.464L29.5813 289.434C29.7687 288.528 30.1591 287.739 30.7525 287.068C31.3459 286.396 32.0642 285.881 32.9075 285.522C33.7507 285.147 34.633 284.96 35.5543 284.96C36.7099 284.96 37.7249 285.163 38.5994 285.569C39.4739 285.975 40.1532 286.545 40.6373 287.279C41.1214 288.012 41.3634 288.871 41.3634 289.855C41.3634 290.48 41.2541 291.097 41.0355 291.706C40.8169 292.299 40.4811 292.908 40.0283 293.533C39.591 294.142 39.0211 294.805 38.3183 295.524L34.3129 299.646H41.5274V302.691H29.6984Z" fill="url(#paint2_linear_241_739)"/>
</g>
<g filter="url(#filter2_d_241_739)">
<rect x="13" y="508" width="45.3836" height="45.3836" rx="22.6918" fill="black"/>
<rect x="13.549" y="508.549" width="44.2856" height="44.2856" rx="22.1428" stroke="url(#paint3_linear_241_739)" stroke-width="1.09799"/>
<path d="M35.3599 540.972C34.3917 540.972 33.4704 540.793 32.5959 540.434C31.7214 540.059 30.9797 539.536 30.3706 538.864C29.7616 538.193 29.3556 537.404 29.1526 536.499L32.3617 535.421C32.6271 536.171 33.0175 536.741 33.5328 537.131C34.0482 537.506 34.6572 537.693 35.3599 537.693C35.9377 537.693 36.4296 537.584 36.8356 537.365C37.2572 537.147 37.5852 536.842 37.8194 536.452C38.0536 536.046 38.1708 535.577 38.1708 535.046C38.1708 534.515 38.0536 534.062 37.8194 533.688C37.6008 533.297 37.2807 533.001 36.859 532.798C36.453 532.579 35.9533 532.47 35.3599 532.47C35.0164 532.47 34.6728 532.509 34.3293 532.587C33.9857 532.665 33.6734 532.774 33.3923 532.915L32.549 531.158L37.023 526.286H30.2067V523.241H41.0987V526.052L36.5077 531.275L36.6248 529.799C37.6711 529.799 38.5768 530.018 39.342 530.455C40.1227 530.877 40.724 531.47 41.1456 532.235C41.5828 533.001 41.8014 533.891 41.8014 534.906C41.8014 536.061 41.5204 537.1 40.9582 538.021C40.396 538.942 39.6308 539.669 38.6627 540.2C37.6945 540.715 36.5936 540.972 35.3599 540.972Z" fill="url(#paint4_linear_241_739)"/>
</g>
<defs>
<filter id="filter0_d_241_739" x="0.922105" y="0.458118" width="71.0036" height="71.0026" filterUnits="userSpaceOnUse" color-interpolation-filters="sRGB">
<feFlood flood-opacity="0" result="BackgroundImageFix"/>
<feColorMatrix in="SourceAlpha" type="matrix" values="0 0 0 0 0 0 0 0 0 0 0 0 0 0 0 0 0 0 127 0" result="hardAlpha"/>
<feMorphology radius="2.92797" operator="dilate" in="SourceAlpha" result="effect1_dropShadow_241_739"/>
<feOffset dx="0.731994" dy="-0.731994"/>
<feGaussianBlur stdDeviation="4.94096"/>
<feComposite in2="hardAlpha" operator="out"/>
<feColorMatrix type="matrix" values="0 0 0 0 1 0 0 0 0 0.937255 0 0 0 0 0.937255 0 0 0 0.18 0"/>
<feBlend mode="normal" in2="BackgroundImageFix" result="effect1_dropShadow_241_739"/>
<feBlend mode="normal" in="SourceGraphic" in2="effect1_dropShadow_241_739" result="shape"/>
</filter>
<filter id="filter1_d_241_739" x="0.922105" y="256.458" width="71.0036" height="71.0026" filterUnits="userSpaceOnUse" color-interpolation-filters="sRGB">
<feFlood flood-opacity="0" result="BackgroundImageFix"/>
<feColorMatrix in="SourceAlpha" type="matrix" values="0 0 0 0 0 0 0 0 0 0 0 0 0 0 0 0 0 0 127 0" result="hardAlpha"/>
<feMorphology radius="2.92797" operator="dilate" in="SourceAlpha" result="effect1_dropShadow_241_739"/>
<feOffset dx="0.731994" dy="-0.731994"/>
<feGaussianBlur stdDeviation="4.94096"/>
<feComposite in2="hardAlpha" operator="out"/>
<feColorMatrix type="matrix" values="0 0 0 0 1 0 0 0 0 0.937255 0 0 0 0 0.937255 0 0 0 0.18 0"/>
<feBlend mode="normal" in2="BackgroundImageFix" result="effect1_dropShadow_241_739"/>
<feBlend mode="normal" in="SourceGraphic" in2="effect1_dropShadow_241_739" result="shape"/>
</filter>
<filter id="filter2_d_241_739" x="0.922105" y="494.458" width="71.0036" height="71.0026" filterUnits="userSpaceOnUse" color-interpolation-filters="sRGB">
<feFlood flood-opacity="0" result="BackgroundImageFix"/>
<feColorMatrix in="SourceAlpha" type="matrix" values="0 0 0 0 0 0 0 0 0 0 0 0 0 0 0 0 0 0 127 0" result="hardAlpha"/>
<feMorphology radius="2.92797" operator="dilate" in="SourceAlpha" result="effect1_dropShadow_241_739"/>
<feOffset dx="0.731994" dy="-0.731994"/>
<feGaussianBlur stdDeviation="4.94096"/>
<feComposite in2="hardAlpha" operator="out"/>
<feColorMatrix type="matrix" values="0 0 0 0 1 0 0 0 0 0.937255 0 0 0 0 0.937255 0 0 0 0.18 0"/>
<feBlend mode="normal" in2="BackgroundImageFix" result="effect1_dropShadow_241_739"/>
<feBlend mode="normal" in="SourceGraphic" in2="effect1_dropShadow_241_739" result="shape"/>
</filter>
<linearGradient id="paint0_linear_241_739" x1="35.626" y1="16.8359" x2="35.626" y2="522.863" gradientUnits="userSpaceOnUse">
<stop stop-color="#3E85F3"/>
<stop offset="0.525" stop-color="#D81E95"/>
<stop offset="1" stop-color="#00AA61"/>
</linearGradient>
<linearGradient id="paint1_linear_241_739" x1="30.6914" y1="36.6914" x2="54.0985" y2="62.939" gradientUnits="userSpaceOnUse">
<stop stop-color="#2B86F1"/>
<stop offset="1" stop-color="#F71B9A"/>
</linearGradient>
<linearGradient id="paint2_linear_241_739" x1="28.6914" y1="292.691" x2="42.6914" y2="292.691" gradientUnits="userSpaceOnUse">
<stop stop-color="#FFA1D7"/>
<stop offset="1" stop-color="#F71B9A"/>
</linearGradient>
<linearGradient id="paint3_linear_241_739" x1="35.6918" y1="508" x2="35.6918" y2="553.384" gradientUnits="userSpaceOnUse">
<stop stop-color="#00B161"/>
<stop offset="1" stop-color="#006F5C"/>
</linearGradient>
<linearGradient id="paint4_linear_241_739" x1="28.1914" y1="530.691" x2="43.1914" y2="540.441" gradientUnits="userSpaceOnUse">
<stop stop-color="#00B361"/>
<stop offset="1" stop-color="#00A160"/>
</linearGradient>
</defs>
</svg>
