<svg width="126" height="126" viewBox="0 0 126 126" fill="none" xmlns="http://www.w3.org/2000/svg">
<g filter="url(#filter0_d_1_199)">
<rect x="22" y="24" width="80" height="80" rx="40" fill="black"/>
<rect x="22.9677" y="24.9677" width="78.0645" height="78.0645" rx="39.0323" stroke="#F71C9A" stroke-width="1.93548"/>
<path d="M51.4358 81V76.0452L59.6939 67.5394C61.318 65.8602 62.5429 64.5389 63.3687 63.5755C64.222 62.5845 64.8001 61.7587 65.1029 61.0981C65.4332 60.4374 65.5984 59.7905 65.5984 59.1574C65.5984 58.0288 65.2268 57.148 64.4835 56.5148C63.7679 55.8542 62.8595 55.5239 61.7584 55.5239C60.6298 55.5239 59.6251 55.8542 58.7442 56.5148C57.8633 57.148 57.2165 58.1252 56.8035 59.4465L51.2294 57.6297C51.5597 56.0331 52.2479 54.643 53.2939 53.4594C54.3399 52.2757 55.6061 51.3673 57.0926 50.7342C58.579 50.0735 60.1343 49.7432 61.7584 49.7432C63.7954 49.7432 65.5846 50.1011 67.1261 50.8168C68.6676 51.5325 69.8651 52.5372 70.7184 53.831C71.5717 55.1247 71.9984 56.6387 71.9984 58.3729C71.9984 59.474 71.8057 60.5613 71.4203 61.6348C71.0349 62.6809 70.4431 63.7544 69.6448 64.8555C68.8741 65.929 67.8694 67.0989 66.6306 68.3652L59.57 75.6323H72.2874V81H51.4358Z" fill="url(#paint0_linear_1_199)"/>
</g>
<defs>
<filter id="filter0_d_1_199" x="0.709679" y="0.129034" width="125.161" height="125.161" filterUnits="userSpaceOnUse" color-interpolation-filters="sRGB">
<feFlood flood-opacity="0" result="BackgroundImageFix"/>
<feColorMatrix in="SourceAlpha" type="matrix" values="0 0 0 0 0 0 0 0 0 0 0 0 0 0 0 0 0 0 127 0" result="hardAlpha"/>
<feMorphology radius="5.16129" operator="dilate" in="SourceAlpha" result="effect1_dropShadow_1_199"/>
<feOffset dx="1.29032" dy="-1.29032"/>
<feGaussianBlur stdDeviation="8.70968"/>
<feComposite in2="hardAlpha" operator="out"/>
<feColorMatrix type="matrix" values="0 0 0 0 1 0 0 0 0 0.937255 0 0 0 0 0.937255 0 0 0 0.18 0"/>
<feBlend mode="normal" in2="BackgroundImageFix" result="effect1_dropShadow_1_199"/>
<feBlend mode="normal" in="SourceGraphic" in2="effect1_dropShadow_1_199" result="shape"/>
</filter>
<linearGradient id="paint0_linear_1_199" x1="49.5" y1="64" x2="74.5" y2="64" gradientUnits="userSpaceOnUse">
<stop stop-color="#FFA1D7"/>
<stop offset="1" stop-color="#F71B9A"/>
</linearGradient>
</defs>
</svg>
