<svg width="72" height="72" viewBox="0 0 72 72" fill="none" xmlns="http://www.w3.org/2000/svg">
<g filter="url(#filter0_d_241_743)">
<rect x="13" y="14" width="45.3836" height="45.3836" rx="22.6918" fill="black"/>
<rect x="13.549" y="14.549" width="44.2856" height="44.2856" rx="22.1428" stroke="#F71C9A" stroke-width="1.09799"/>
<path d="M29.6984 46.6914V43.8806L34.3832 39.0552C35.3045 38.1027 35.9994 37.3531 36.4679 36.8066C36.952 36.2444 37.2799 35.7759 37.4517 35.4011C37.6391 35.0264 37.7328 34.6594 37.7328 34.3002C37.7328 33.66 37.5219 33.1603 37.1003 32.8011C36.6943 32.4263 36.179 32.2389 35.5543 32.2389C34.9141 32.2389 34.3441 32.4263 33.8444 32.8011C33.3447 33.1603 32.9777 33.7146 32.7435 34.4642L29.5813 33.4335C29.7687 32.5278 30.1591 31.7392 30.7525 31.0677C31.3459 30.3963 32.0642 29.8809 32.9075 29.5218C33.7507 29.147 34.633 28.9596 35.5543 28.9596C36.7099 28.9596 37.7249 29.1626 38.5994 29.5686C39.4739 29.9746 40.1532 30.5446 40.6373 31.2785C41.1214 32.0125 41.3634 32.8714 41.3634 33.8552C41.3634 34.4798 41.2541 35.0966 41.0355 35.7056C40.8169 36.299 40.4811 36.9081 40.0283 37.5327C39.591 38.1417 39.0211 38.8054 38.3183 39.5237L34.3129 43.6463H41.5274V46.6914H29.6984Z" fill="url(#paint0_linear_241_743)"/>
</g>
<defs>
<filter id="filter0_d_241_743" x="0.922105" y="0.458118" width="71.0036" height="71.0026" filterUnits="userSpaceOnUse" color-interpolation-filters="sRGB">
<feFlood flood-opacity="0" result="BackgroundImageFix"/>
<feColorMatrix in="SourceAlpha" type="matrix" values="0 0 0 0 0 0 0 0 0 0 0 0 0 0 0 0 0 0 127 0" result="hardAlpha"/>
<feMorphology radius="2.92797" operator="dilate" in="SourceAlpha" result="effect1_dropShadow_241_743"/>
<feOffset dx="0.731994" dy="-0.731994"/>
<feGaussianBlur stdDeviation="4.94096"/>
<feComposite in2="hardAlpha" operator="out"/>
<feColorMatrix type="matrix" values="0 0 0 0 1 0 0 0 0 0.937255 0 0 0 0 0.937255 0 0 0 0.18 0"/>
<feBlend mode="normal" in2="BackgroundImageFix" result="effect1_dropShadow_241_743"/>
<feBlend mode="normal" in="SourceGraphic" in2="effect1_dropShadow_241_743" result="shape"/>
</filter>
<linearGradient id="paint0_linear_241_743" x1="28.6914" y1="36.6914" x2="42.6914" y2="36.6914" gradientUnits="userSpaceOnUse">
<stop stop-color="#FFA1D7"/>
<stop offset="1" stop-color="#F71B9A"/>
</linearGradient>
</defs>
</svg>
